<?xml version="1.0" encoding="UTF-8"?>
<svg version="1.1" xmlns="http://www.w3.org/2000/svg" width="7240" height="7076">
<path d="M0 0 C2389.2 0 4778.4 0 7240 0 C7240 2335.08 7240 4670.16 7240 7076 C4850.8 7076 2461.6 7076 0 7076 C0 4740.92 0 2405.84 0 0 Z " fill="#000000" transform="translate(0,0)"/>
<path d="M0 0 C14.85 0 29.7 0 45 0 C48.3 4.62 51.6 9.24 55 14 C57.32557781 17.17303413 59.65574806 20.34095856 62 23.5 C66.88059762 30.10091099 71.69972996 36.73961219 76.45703125 43.4296875 C84.44903085 54.66596417 92.57410514 65.80410722 100.76855469 76.89331055 C105.25769203 82.97478595 109.68967036 89.09562476 114.10546875 95.23046875 C118.03392016 100.68083838 122.00705268 106.09674016 126 111.5 C130.53751011 117.64016269 135.03966576 123.80354661 139.5 130 C146.25983749 139.38780773 153.12417344 148.69696495 160 158 C167.42059673 168.0401124 174.81196039 178.09797508 182.10571289 188.23071289 C186.03398929 193.68107005 190.00716717 199.09679647 194 204.5 C199.77193849 212.31188829 205.482741 220.16606444 211.16015625 228.046875 C211.63598145 228.70623047 212.11180664 229.36558594 212.60205078 230.04492188 C213.54768525 231.3674229 214.48332755 232.6971167 215.40966797 234.03320312 C217.6955852 237.56013046 217.6955852 237.56013046 221 240 C221.35578125 238.94619141 221.35578125 238.94619141 221.71875 237.87109375 C223.23248531 234.47903443 225.18474928 231.96755352 227.5 229.0625 C231.03068766 224.57435938 234.45665112 220.0401822 237.75 215.375 C241.70546373 209.7839903 245.74027548 204.2565302 249.8125 198.75 C254.41296313 192.52679636 258.979412 186.28147057 263.5 180 C268.54001692 172.99780396 273.64213444 166.04386664 278.76953125 159.10546875 C282.71415404 153.76142324 286.61969056 148.39089219 290.5 143 C295.54007819 135.99784758 300.64213385 129.04386744 305.76953125 122.10546875 C309.71415404 116.76142324 313.61969056 111.39089219 317.5 106 C321.96020953 99.80345586 326.46259635 93.64023977 331 87.5 C337.73553059 78.38251634 344.37863637 69.20059231 351 60 C358.19385104 50.00391848 365.42602084 40.03970829 372.74731445 30.13647461 C377.46183636 23.75171771 382.11616159 17.32498872 386.73828125 10.87304688 C387.23972656 10.17501953 387.74117187 9.47699219 388.2578125 8.7578125 C388.90967529 7.84733154 388.90967529 7.84733154 389.57470703 6.91845703 C391.3224505 4.56597875 393.16923193 2.28846008 395 0 C409.52 0 424.04 0 439 0 C439 136.29 439 272.58 439 413 C403.36 413 367.72 413 331 413 C330.505 333.305 330.505 333.305 330 252 C326.04 257.61 322.08 263.22 318 269 C315.88152095 271.94285394 313.76002677 274.88187538 311.625 277.8125 C305.20241628 286.66836958 298.93568078 295.62984687 292.67578125 304.60107422 C285.53810665 314.81884675 278.31282852 324.96904157 270.99584961 335.05908203 C266.93945424 340.66636352 262.95730938 346.32245458 259 352 C254.51345523 358.43683858 249.98113904 364.83565846 245.375 371.1875 C232.88921467 388.38677868 232.88921467 388.38677868 221 406 C217.56800009 404.85600003 217.201961 404.22662783 215.28515625 401.30859375 C214.77017578 400.53708984 214.25519531 399.76558594 213.72460938 398.97070312 C213.17611328 398.13474609 212.62761719 397.29878906 212.0625 396.4375 C207.86401204 390.16092506 203.58953854 383.99692544 199 378 C194.08230603 371.54877053 189.47513967 364.92401097 184.92578125 358.20922852 C179.13070846 349.67443158 173.0758813 341.33607993 167 333 C160.34951577 323.87556761 153.77105682 314.72318622 147.4375 305.375 C142.93111442 298.72419646 138.25267621 292.25010021 133.38745117 285.8581543 C129.42495894 280.62976562 125.67394875 275.27784947 122.00341797 269.84106445 C118.13023088 264.11684535 114.0763163 258.60493492 110 253 C109.67 305.8 109.34 358.6 109 413 C73.03 413 37.06 413 0 413 C0 276.71 0 140.42 0 0 Z " fill="#15510D" transform="translate(3804,3347)"/>
<path d="M0 0 C163.82288043 0 163.82288043 0 180.8125 6.1875 C182.10329468 6.63923584 182.10329468 6.63923584 183.42016602 7.10009766 C215.00600412 18.49804535 240.35647361 39.01201175 255.3125 69.375 C264.60397279 90.43567165 266.04119762 115.36115919 257.94848633 137.04223633 C251.5668476 152.93593585 243.11592641 167.09707641 228 176 C225.67578125 176.7109375 225.67578125 176.7109375 224 177 C224 177.66 224 178.32 224 179 C224.6084375 179.00257813 225.216875 179.00515625 225.84375 179.0078125 C247.6012226 179.967701 267.82571381 194.10723865 282.4921875 209.1875 C305.04114464 234.47605006 311.38644831 263.79597783 310 297 C307.80598687 329.09447416 289.44399928 357.05709576 266 378 C256.63703408 385.89563544 245.972748 391.66579472 235 397 C233.96101563 397.5053125 232.92203125 398.010625 231.8515625 398.53125 C165.87679527 428.17470706 32.1651124 409 0 409 C0 274.03 0 139.06 0 0 Z " fill="#16520C" transform="translate(1844,3351)"/>
<path d="M0 0 C1.43589702 10.55537065 2.37605808 21.12413172 3.125 31.75 C3.21249512 32.95615967 3.29999023 34.16231934 3.39013672 35.4050293 C3.92420737 43.2823028 4.10365706 51.10560992 4 59 C4.62841797 59.01482422 5.25683594 59.02964844 5.90429688 59.04492188 C21.84368966 59.6039596 37.82021875 66.10044201 52 73 C52.94617187 73.44730469 53.89234375 73.89460938 54.8671875 74.35546875 C72.72776435 83.39175467 95.92261864 101.34985882 103 121 C102.87675861 125.26063089 99.66625361 127.85211526 96.875 130.75 C95.85998112 131.82877267 94.84565672 132.90819921 93.83203125 133.98828125 C93.34041504 134.5085791 92.84879883 135.02887695 92.34228516 135.56494141 C90.70301981 137.31750629 89.12636931 139.11751314 87.5625 140.9375 C83.93787911 145.12109857 80.16614933 149.1643461 76.40258789 153.22241211 C73.72598962 156.11364128 71.07688821 159.01889404 68.5 162 C64.94692753 166.10769842 61.25281739 170.08015824 57.56054688 174.06225586 C53.64017609 178.29391395 49.77360778 182.57055036 45.9375 186.87890625 C44.01568447 188.9828293 42.03048322 191.00124308 40 193 C39.46375 192.31035156 38.9275 191.62070313 38.375 190.91015625 C27.97875943 178.44492701 14.44957779 172.24281568 -1 168 C-1.83402344 167.76667969 -2.66804688 167.53335938 -3.52734375 167.29296875 C-20.39530145 163.28502666 -38.97904583 163.80523404 -54.37109375 172.265625 C-60.84889183 176.53923919 -65.84308155 181.45078541 -68 189 C-68.73076131 194.35543646 -68.06723641 198.49499652 -65 203 C-53.61122819 215.53050332 -35.85171242 219.17658865 -20.3125 224 C-15.93221461 225.3706272 -11.55365939 226.74670487 -7.17578125 228.125 C-6.12205322 228.45614304 -5.0683252 228.78728607 -3.98266602 229.12846375 C46.12851654 244.95913564 99.03909765 268.34400168 124.65234375 317.1484375 C139.09757682 346.92105528 141.30580759 381.7349494 130.52734375 413.06640625 C127.9572944 419.99140684 124.45240094 426.48521831 121 433 C119.9945934 434.99728755 118.99259494 436.99631457 118 439 C117.34 439 116.68 439 116 439 C115.65775391 440.04800781 115.65775391 440.04800781 115.30859375 441.1171875 C113.72788074 444.59947467 111.54848785 447.2659849 109.0625 450.125 C108.32942627 450.9754187 108.32942627 450.9754187 107.58154297 451.84301758 C98.93345675 461.76239188 89.61844388 470.2582132 79 478 C78.12214844 478.6496875 77.24429688 479.299375 76.33984375 479.96875 C66.25084765 487.25968854 55.43546794 492.22972378 43.99682617 497.01708984 C43.10842041 497.38914551 42.22001465 497.76120117 41.3046875 498.14453125 C40.50015137 498.47815674 39.69561523 498.81178223 38.86669922 499.15551758 C37.02670809 499.85569384 37.02670809 499.85569384 36 501 C35.48385075 509.66827123 36.31634064 518.3640288 37 527 C37.87448685 538.69607412 38.24566426 550.27635543 38 562 C8.01799497 566.17321097 -22.71162913 568.90764263 -53 568 C-54.14732255 563.18310079 -54.41808254 558.34609611 -54.75390625 553.421875 C-54.81907944 552.49586487 -54.88425262 551.56985474 -54.95140076 550.61578369 C-55.0882494 548.65916815 -55.22347209 546.7024383 -55.35717773 544.74560547 C-55.56085075 541.77406215 -55.77126216 538.80305085 -55.98242188 535.83203125 C-56.11499067 533.92450743 -56.24716477 532.01695613 -56.37890625 530.109375 C-56.44139053 529.23093933 -56.50387482 528.35250366 -56.56825256 527.44744873 C-56.93833215 521.95124062 -57.05528261 516.50879029 -57 511 C-58.78277344 510.87044922 -58.78277344 510.87044922 -60.6015625 510.73828125 C-91.03365633 508.26728599 -121.14674129 499.50307473 -147 483 C-147.78503906 482.53464844 -148.57007812 482.06929687 -149.37890625 481.58984375 C-150.49072266 480.92662109 -150.49072266 480.92662109 -151.625 480.25 C-152.60339844 479.66992188 -152.60339844 479.66992188 -153.6015625 479.078125 C-154.29378906 478.54445313 -154.29378906 478.54445313 -155 478 C-155 477.34 -155 476.68 -155 476 C-155.74781738 475.73896484 -156.49563477 475.47792969 -157.26611328 475.20898438 C-160.05026704 473.97777082 -161.60023376 472.78611532 -163.7421875 470.65625 C-164.41290283 469.99149658 -165.08361816 469.32674316 -165.7746582 468.6418457 C-166.467771 467.93503662 -167.16088379 467.22822754 -167.875 466.5 C-168.94463989 465.41948364 -168.94463989 465.41948364 -170.03588867 464.31713867 C-174.97269784 459.24983115 -179.36279793 454.09203196 -183 448 C-183.57105469 447.16855469 -184.14210938 446.33710938 -184.73046875 445.48046875 C-186 443 -186 443 -185.9453125 440.984375 C-184.65856098 438.28326024 -182.92258918 436.4294678 -180.875 434.25 C-180.05773438 433.36828125 -179.24046875 432.4865625 -178.3984375 431.578125 C-177.60695313 430.72734375 -176.81546875 429.8765625 -176 429 C-174.8269857 427.67224764 -173.65971254 426.33938632 -172.5 425 C-169.10746907 421.10487189 -165.64805799 417.27217237 -162.1875 413.4375 C-160.27445851 411.30582519 -158.38112388 409.1598089 -156.5 407 C-153.10746907 403.10487189 -149.64805799 399.27217237 -146.1875 395.4375 C-144.27445851 393.30582519 -142.38112388 391.1598089 -140.5 389 C-137.11897448 385.11808181 -133.67155774 381.29815832 -130.22265625 377.4765625 C-127.11474899 374.0136219 -124.05149808 370.51265696 -121 367 C-120.27425781 367.72832031 -119.54851563 368.45664063 -118.80078125 369.20703125 C-106.10574869 381.86665228 -93.16087246 391.30878309 -76 397 C-74.52466797 397.55107422 -74.52466797 397.55107422 -73.01953125 398.11328125 C-50.01414542 406.47058786 -21.51930141 405.71764658 1.05078125 396.4453125 C8.33994757 392.87313828 13.77682129 388.52075033 17 381 C18.66094774 375.02058815 17.71798066 370.44536609 15 365 C-1.43584857 340.46004881 -42.30967762 330.53291924 -68.95751953 321.08081055 C-85.39494502 315.24158068 -101.95603061 308.89050062 -117 300 C-117.94141846 299.45230957 -117.94141846 299.45230957 -118.90185547 298.89355469 C-120.93925727 297.70764092 -122.97099473 296.51271861 -125 295.3125 C-125.62398682 294.94374756 -126.24797363 294.57499512 -126.89086914 294.19506836 C-130.49227833 292.02658839 -133.77245947 289.68873671 -137 287 C-137.83917969 286.33742188 -138.67835938 285.67484375 -139.54296875 284.9921875 C-150.12166474 276.52298037 -159.55129397 267.37097153 -167 256 C-167 255.34 -167 254.68 -167 254 C-167.66 254 -168.32 254 -169 254 C-171.02518998 250.01225478 -173.02044386 246.01059011 -175 242 C-175.67869141 240.63681641 -175.67869141 240.63681641 -176.37109375 239.24609375 C-189.30839424 212.20270239 -189.61199845 179.58420795 -179.87768555 151.4855957 C-177.23718314 144.30065419 -173.94629512 137.55722776 -170 131 C-169.48953125 130.11054688 -168.9790625 129.22109375 -168.453125 128.3046875 C-163.87150738 120.64684091 -158.17392673 114.36310546 -152 108 C-151.48099121 107.45520996 -150.96198242 106.91041992 -150.42724609 106.34912109 C-136.63544414 91.88516309 -121.01477855 81.11986447 -103 72.5625 C-102.30624268 72.23241943 -101.61248535 71.90233887 -100.89770508 71.56225586 C-96.67251393 69.61259916 -92.49889895 68.2403664 -88 67 C-88.03758423 66.41277161 -88.07516846 65.82554321 -88.1138916 65.22052002 C-88.50772751 59.05533587 -88.89621752 52.88983067 -89.28173828 46.72412109 C-89.42590167 44.42943988 -89.57138422 42.13484112 -89.71826172 39.84033203 C-89.9303123 36.52397638 -90.13746513 33.2073437 -90.34375 29.890625 C-90.40937134 28.88074524 -90.47499268 27.87086548 -90.54260254 26.8303833 C-90.96678285 19.90850604 -91.36313681 12.93209449 -91 6 C-89.36726579 4.36726579 -87.4273135 4.67921895 -85.171875 4.5 C-84.15528809 4.41814453 -83.13870117 4.33628906 -82.09130859 4.25195312 C-80.98867676 4.16880859 -79.88604492 4.08566406 -78.75 4 C-77.61771973 3.91169922 -76.48543945 3.82339844 -75.31884766 3.73242188 C-67.48871531 3.13964584 -59.6628781 2.71351398 -51.81738281 2.39672852 C-45.35356343 2.1166787 -38.93908407 1.55814761 -32.5 0.9375 C-21.64680086 -0.09684291 -10.89374119 -0.20236052 0 0 Z " fill="#FBE700" transform="translate(3629,3255)"/>
<path d="M0 0 C35.64 0 71.28 0 108 0 C108.33 49.5 108.66 99 109 150 C117.25354798 136.79432324 125.49941419 123.58918292 133.6875 110.34375 C137.90648343 103.52846908 142.16197885 96.73606237 146.4140625 89.94140625 C150.4606164 83.47191575 154.48854142 76.99130301 158.5 70.5 C164.98241909 60.01209475 171.51696595 49.55712832 178.05761719 39.10546875 C180.05310124 35.9151021 182.04638726 32.72337168 184.0390625 29.53125 C184.70244629 28.4688208 185.36583008 27.4063916 186.04931641 26.31176758 C187.30452502 24.30139153 188.55943223 22.29082726 189.81396484 20.2800293 C192.82076876 15.46586837 195.83905044 10.65912315 198.875 5.86328125 C199.73738281 4.5007019 199.73738281 4.5007019 200.6171875 3.1105957 C202 1 202 1 203 0 C204.6195634 -0.09603022 206.24333083 -0.12187855 207.86573792 -0.12025452 C208.91888184 -0.12162918 209.97202576 -0.12300385 211.05708313 -0.12442017 C212.80495369 -0.11902725 212.80495369 -0.11902725 214.58813477 -0.11352539 C215.80747711 -0.11367142 217.02681946 -0.11381744 218.28311157 -0.1139679 C221.63627511 -0.11338893 224.98937774 -0.10835968 228.34253049 -0.10139394 C231.84325562 -0.09515983 235.34398148 -0.09455656 238.8447113 -0.09336853 C245.47809656 -0.09025538 252.11146541 -0.08204222 258.74484342 -0.07201904 C266.29490207 -0.06085739 273.84496149 -0.05534732 281.39502633 -0.05032361 C296.93002706 -0.03985959 312.46501142 -0.02226047 328 0 C326.72542326 2.24194701 325.44952083 4.48312192 324.17285156 6.72387695 C323.81446198 7.35459358 323.45607239 7.98531021 323.08682251 8.63513947 C320.45332637 13.25392855 317.688637 17.75595716 314.75 22.1875 C313.8011914 23.63743756 312.85330846 25.08798119 311.90625 26.5390625 C311.42671875 27.27286133 310.9471875 28.00666016 310.453125 28.76269531 C308.01992113 32.50897897 305.63298711 36.28413802 303.25 40.0625 C302.75918945 40.84069092 302.26837891 41.61888184 301.76269531 42.4206543 C297.01091997 49.96656462 292.28946251 57.53143329 287.56738281 65.09594727 C283.25337895 72.00397466 278.91430193 78.89556091 274.55859375 85.77734375 C270.51576867 92.17039781 266.50536438 98.58342346 262.5 105 C255.560222 116.1161299 248.57050694 127.19988483 241.56152344 138.27246094 C234.87173036 148.84314817 228.2004245 159.42507582 221.60449219 170.0546875 C218.56843437 174.93884901 215.49775192 179.78834685 212.30859375 184.57421875 C211.73882813 185.43982422 211.1690625 186.30542969 210.58203125 187.19726562 C209.51254028 188.81674423 208.42858081 190.42679159 207.328125 192.02539062 C206.85761719 192.74275391 206.38710937 193.46011719 205.90234375 194.19921875 C205.48460693 194.81627686 205.06687012 195.43333496 204.63647461 196.0690918 C203.70367396 198.89898069 204.7851469 200.33400316 206 203 C206.84326894 204.44358424 207.72920015 205.86290132 208.65112305 207.25756836 C209.18376266 208.06797577 209.71640228 208.87838318 210.2651825 209.71334839 C210.84153946 210.58009186 211.41789642 211.44683533 212.01171875 212.33984375 C212.61156082 213.24928741 213.21140289 214.15873108 213.829422 215.09573364 C215.77744129 218.04610955 217.73219727 220.991947 219.6875 223.9375 C221.03664824 225.97635547 222.38560616 228.01533688 223.734375 230.05444336 C231.01478498 241.04789375 238.33114369 252.01422205 245.80859375 262.875 C251.46614539 271.11595565 257.04322248 279.41165351 262.63183594 287.69943237 C263.8911459 289.56691914 265.15073558 291.43421734 266.41064453 293.30130005 C272.97089846 303.0231288 279.51287799 312.75652391 286.01171875 322.51953125 C292.44326969 332.18122924 298.92706132 341.80697855 305.42510986 351.42404175 C315.26940212 365.9942462 325.09374216 380.57664636 334.80957031 395.23291016 C335.46280273 396.21694824 336.11603516 397.20098633 336.7890625 398.21484375 C337.34287598 399.05136475 337.89668945 399.88788574 338.46728516 400.74975586 C339.49559075 402.25945523 340.57522549 403.73534066 341.70068359 405.17407227 C343 407 343 407 343 409 C326.05818551 409.25725429 309.11698257 409.45107664 292.17366028 409.56993389 C284.30602636 409.62659528 276.43960763 409.70380272 268.57275391 409.82983398 C261.71383591 409.93966495 254.85579801 410.01048353 247.99602509 410.03497344 C244.36507677 410.04928539 240.73664547 410.08277135 237.10650635 410.16303062 C233.0477466 410.25203385 228.99332661 410.25387836 224.93359375 410.2487793 C223.73740921 410.28832733 222.54122467 410.32787537 221.30879211 410.36862183 C216.29345144 410.3004984 213.24567999 410.19749709 209.53368664 406.62908363 C207.4769007 403.83331009 205.71448502 401.01515281 204 398 C202.97454506 396.4573079 201.9399537 394.92058118 200.88989258 393.39453125 C199.88880215 391.86891438 198.89042908 390.34151157 197.89453125 388.8125 C196.7500356 387.06703395 195.6055027 385.32159232 194.4609375 383.57617188 C193.57100098 382.21576782 193.57100098 382.21576782 192.66308594 380.82788086 C182.06572342 364.63404839 171.35229706 348.52397025 160.5 332.5 C147.36383655 313.09839623 134.43565623 293.56375765 121.58757019 273.97035217 C117.42339907 267.62498747 113.21043982 261.31565973 109 255 C108.67 305.82 108.34 356.64 108 409 C72.36 409 36.72 409 0 409 C0 274.03 0 139.06 0 0 Z " fill="#16520C" transform="translate(3057,3351)"/>
<path d="M0 0 C35.97 0 71.94 0 109 0 C109.01981934 7.98050537 109.03963867 15.96101074 109.06005859 24.18334961 C109.12488933 49.72849843 109.19942345 75.27361011 109.28005161 100.81871366 C109.29257023 104.78775223 109.30500304 108.75679107 109.31738281 112.72583008 C109.31984881 113.5159822 109.3223148 114.30613432 109.32485552 115.12023044 C109.36456097 127.90816147 109.3973181 140.69610131 109.42749982 153.48405796 C109.45863235 166.6092219 109.49724945 179.73434849 109.54279006 192.85947043 C109.57064762 200.95599225 109.59269249 209.05248681 109.60726251 217.14904363 C109.61906757 223.3612856 109.64129452 229.57345086 109.66738319 235.78564835 C109.67644877 238.33131112 109.68214682 240.87698847 109.68421364 243.42266655 C109.68754329 246.90097517 109.70304033 250.37902816 109.7215271 253.85728455 C109.718625 255.36461313 109.718625 255.36461313 109.71566427 256.9023928 C109.84484641 273.18569652 115.53200005 288.66372874 127.24609375 300.21484375 C142.32166165 313.11200447 158.61110948 316.04348377 177.9453125 315.24267578 C193.3363806 314.01995186 206.47035662 305.96761815 217 295 C223.85396263 286.58627344 229.10299986 276.14790126 229.1386652 265.16807079 C229.14413964 264.21759875 229.14961409 263.2671267 229.15525442 262.28785247 C229.15623253 261.25186063 229.15721064 260.2158688 229.15821838 259.14848328 C229.16315636 258.04165201 229.16809434 256.93482075 229.17318195 255.79444915 C229.18856299 252.07870655 229.19691927 248.36298125 229.20532227 244.6472168 C229.21490031 241.98641203 229.22486711 239.32561138 229.23532104 236.66481018 C229.25706561 230.93269761 229.27521748 225.20058271 229.29092598 219.46845055 C229.31364301 211.18076062 229.34178329 202.89309609 229.37124526 194.60542772 C229.41889869 181.15908217 229.46216897 167.71272623 229.50268555 154.26635742 C229.54205191 141.20482576 229.58348088 128.14330333 229.62768555 115.08178711 C229.63177196 113.87402433 229.63177196 113.87402433 229.63594092 112.6418623 C229.64962058 108.60251611 229.66334082 104.56317007 229.67708123 100.5238241 C229.79101069 67.01590085 229.89702085 33.50795914 230 0 C266.3 0 302.6 0 340 0 C340.04414936 34.12405853 340.08105517 68.24808918 340.10213066 102.37216771 C340.10463186 106.40729154 340.10722053 110.44241532 340.10986328 114.47753906 C340.11065021 115.68244259 340.11065021 115.68244259 340.11145304 116.91168761 C340.1201389 129.89213968 340.13589879 142.87257391 340.15430559 155.85301542 C340.17305538 169.1872379 340.18412743 182.52145107 340.18817699 195.85568619 C340.19091154 204.07351464 340.19952615 212.29129265 340.21583293 220.50910556 C340.22646261 226.15601642 340.22958719 231.80290147 340.22700275 237.44982159 C340.2257307 240.70037049 340.22870086 243.95081407 340.23841095 247.20135117 C340.27560239 260.3006947 340.13454857 273.05333133 338 286 C337.78509257 287.42329117 337.78509257 287.42329117 337.56584358 288.87533569 C332.60587729 321.35260843 316.5072773 348.62844325 294 372 C293.41089844 372.64066406 292.82179688 373.28132813 292.21484375 373.94140625 C266.62086125 401.04461622 224.111796 418.73546094 187.19628906 420.14526367 C185.89916992 420.15275635 184.60205078 420.16024902 183.265625 420.16796875 C182.55426895 420.17229416 181.8429129 420.17661957 181.11000061 420.18107605 C178.82326451 420.19111618 176.53675356 420.19126992 174.25 420.1875 C173.46555511 420.18623108 172.68111023 420.18496216 171.87289429 420.18365479 C123.30929977 420.03369638 78.95486578 404.74977505 43.9375 370.25 C12.34867943 338.44756826 -0.39198316 297.15591905 -0.3732605 253.0622406 C-0.36264914 250.55996582 -0.3517448 248.05769227 -0.34057617 245.55541992 C-0.33972798 242.86269228 -0.34007742 240.16998908 -0.34190369 237.4772644 C-0.34346226 231.72519368 -0.33420339 225.97322654 -0.31719017 220.22118187 C-0.29260948 211.9051307 -0.28497563 203.58912865 -0.2812262 195.2730451 C-0.27469127 181.77453111 -0.25481131 168.2760721 -0.22631836 154.77758789 C-0.19870057 141.6799344 -0.177505 128.58229595 -0.16479492 115.48461914 C-0.16400675 114.67468654 -0.16321858 113.86475394 -0.16240653 113.03027793 C-0.15849087 108.96630989 -0.15469988 104.90234175 -0.15097082 100.83837354 C-0.11996725 67.22553361 -0.06471466 33.61279613 0 0 Z " fill="#16510C" transform="translate(2213,3351)"/>
<path d="M0 0 C17.49 0 34.98 0 53 0 C60.5256041 15.98294967 68.02674637 31.9691419 75.3125 48.0625 C80.8032465 60.19049467 86.34979271 72.2913619 91.9375 84.375 C97.65333703 96.73719443 103.34631451 109.10925431 109 121.5 C114.63465183 133.8482235 120.30563555 146.17920121 126 158.5 C132.0230664 171.53200556 138.01721645 184.57666096 143.97546387 197.63842773 C147.82233388 206.07067449 151.68503614 214.49522793 155.578125 222.90625 C155.96385178 223.73971451 156.34957855 224.57317902 156.74699402 225.43190002 C158.29916716 228.7854695 159.85137473 232.13902298 161.40396118 235.49240112 C166.76453916 247.0767896 172.00904565 258.70388306 177.15063477 270.38720703 C180.01530272 276.87032293 183.05174444 283.19877561 186.296875 289.5 C188.51389865 294.0560853 190.47089126 298.70647786 192.4375 303.375 C195.04631762 309.5647838 197.73230404 315.65517676 200.8125 321.625 C205.09328214 329.93423953 208.81516548 338.48053881 212.58398438 347.03125 C215.25975673 353.09633402 217.95610197 359.14279188 220.8125 365.125 C225.65825073 375.27354689 230.25956297 385.53523592 234.89770508 395.77978516 C235.37910194 396.84209099 235.37910194 396.84209099 235.870224 397.92585754 C236.47776785 399.26674762 237.08462737 400.60794804 237.69068909 401.94950867 C238.80816927 404.41588166 239.92568511 406.86058018 241.19970703 409.25073242 C242 411 242 411 242 414 C203.06 414 164.12 414 124 414 C116.32609038 398.65218076 109.75941234 382.77196212 103 367 C52.51 366.67 2.02 366.34 -50 366 C-50.66 368.31 -51.32 370.62 -52 373 C-52.83060652 374.93631839 -53.70742912 376.85334511 -54.625 378.75 C-57.63817839 385.13084836 -60.3973131 391.59771523 -63.10791016 398.11230469 C-63.42550293 398.87446289 -63.7430957 399.63662109 -64.0703125 400.421875 C-64.34633301 401.08799805 -64.62235352 401.75412109 -64.90673828 402.44042969 C-66.56066215 406.31263554 -68.28989939 410.15227363 -70 414 C-109.27 414 -148.54 414 -189 414 C-187.05476107 408.16428322 -185.1631268 402.89004902 -182.5 397.4375 C-181.78390919 395.94330535 -181.06914119 394.44847625 -180.35546875 392.953125 C-179.97438965 392.15583984 -179.59331055 391.35855469 -179.20068359 390.53710938 C-177.02581851 385.94150182 -174.92300831 381.31292311 -172.8125 376.6875 C-168.70233327 367.69154062 -164.54938855 358.71632619 -160.375 349.75 C-154.5042148 337.12794092 -148.66220851 324.49063664 -143.140625 311.7109375 C-142.84140137 311.01967773 -142.54217773 310.32841797 -142.23388672 309.61621094 C-141.45082732 307.80079524 -140.6742809 305.98257376 -139.8984375 304.1640625 C-138.29134723 300.53274232 -136.50479489 297.00134851 -134.71484375 293.45703125 C-131.32723562 286.74261576 -128.17520395 279.93161996 -125.09155273 273.07275391 C-123.4777653 269.48433215 -121.85391256 265.9004673 -120.23046875 262.31640625 C-119.88901825 261.56223419 -119.54756775 260.80806213 -119.19577026 260.03103638 C-115.17696735 251.16593029 -111.08750926 242.33357623 -107 233.5 C-101.35205668 221.29042246 -95.74057447 209.06552096 -90.1875 196.8125 C-85.17414811 185.75112049 -80.1008718 174.71995158 -74.97216797 163.71142578 C-70.37033744 153.82369001 -65.83422054 143.90675555 -61.30743408 133.98449707 C-55.88415407 122.09913738 -50.4203191 110.23299998 -44.9375 98.375 C-39.11388933 85.77885696 -33.3318287 73.16511878 -27.60507202 60.5246582 C-21.43945352 46.91864558 -15.17955083 33.35667652 -8.90039062 19.80273438 C-8.5295636 19.00139069 -8.15873657 18.200047 -7.77667236 17.37442017 C-7.08575967 15.88148861 -6.39405094 14.38892506 -5.70135498 12.89682007 C-5.23285126 11.88417587 -5.23285126 11.88417587 -4.75488281 10.85107422 C-4.48701965 10.27332245 -4.21915649 9.69557068 -3.94317627 9.10031128 C-2.58887271 6.08448154 -1.30228118 3.0386561 0 0 Z " fill="#14500D" transform="translate(4489,3346)"/>
<path d="M0 0 C0.83756836 0.36818848 1.67513672 0.73637695 2.53808594 1.11572266 C21.94303499 9.69295697 39.67256459 20.46017552 56 34 C57.95581746 35.56564803 59.91390358 37.12846937 61.875 38.6875 C63.25052331 39.79101468 64.62574984 40.89490022 66 42 C64.38860208 45.61707406 62.18105107 48.5097127 59.75 51.625 C59.31526367 52.18421143 58.88052734 52.74342285 58.43261719 53.31958008 C57.47348409 54.55258411 56.51279602 55.7843797 55.55078125 57.01513672 C53.93637564 59.08143357 52.32702196 61.15158237 50.71875 63.22265625 C47.75342227 67.0404101 44.78443988 70.85530355 41.81445312 74.66943359 C39.45517803 77.6997942 37.09736535 80.73129052 34.73974609 83.76293945 C33.58135257 85.25246512 32.42282425 86.74188596 31.26416016 88.23120117 C28.27030274 92.07954665 25.27825445 95.92927923 22.2890625 99.78125 C16.2465062 107.56485477 10.19801905 115.33909447 4 123 C0.64356226 121.07868834 -2.25893165 119.01782197 -5.1875 116.5 C-31.92468014 94.89540355 -65.42989538 83.35178942 -99.75 86.6875 C-122.59774129 89.2245225 -144.67801283 98.94104663 -162 114 C-162.88171875 114.72574219 -163.7634375 115.45148437 -164.671875 116.19921875 C-183.09624222 131.94320486 -195.79194486 155.95774523 -199 180 C-199.27429039 184.98258776 -199.27974076 189.94848738 -199.25 194.9375 C-199.25773437 196.23107422 -199.26546875 197.52464844 -199.2734375 198.85742188 C-199.25143218 209.7225483 -197.81474361 219.53948462 -194.3125 229.8125 C-194.05049805 230.58166748 -193.78849609 231.35083496 -193.51855469 232.14331055 C-189.01575086 244.97258014 -182.62302119 255.57347111 -174 266 C-173.43796875 266.72703125 -172.8759375 267.4540625 -172.296875 268.203125 C-156.70503222 287.57480846 -129.41618571 301.45328272 -104.90625 304.58203125 C-88.44803179 306.22663356 -71.74923899 306.32591452 -56 301 C-54.80375 300.66097656 -53.6075 300.32195313 -52.375 299.97265625 C-32.37234045 294.01847475 -13.64255425 282.31068497 1.46582031 267.99511719 C1.97209961 267.66672852 2.47837891 267.33833984 3 267 C6.35927769 268.11975923 6.80914756 268.73602602 8.79296875 271.515625 C9.33244141 272.26134766 9.87191406 273.00707031 10.42773438 273.77539062 C11.00845703 274.59201172 11.58917969 275.40863281 12.1875 276.25 C13.45018186 277.99597965 14.71456805 279.74072772 15.98046875 281.484375 C16.63966309 282.39380859 17.29885742 283.30324219 17.97802734 284.24023438 C21.25312015 288.71036829 24.62672698 293.10376575 28 297.5 C33.66381041 304.89966971 39.25626808 312.34512345 44.74829102 319.87329102 C47.85624194 324.12587643 51.01375327 328.3300895 54.2421875 332.4921875 C55.29200806 333.85621704 55.29200806 333.85621704 56.36303711 335.24780273 C57.72061626 337.00800627 59.08827156 338.76049548 60.46704102 340.50415039 C61.07475342 341.2955542 61.68246582 342.08695801 62.30859375 342.90234375 C62.85314209 343.59835693 63.39769043 344.29437012 63.95874023 345.01147461 C65 347 65 347 64.77368164 349.13500977 C56.74451844 368.48962564 17.22118643 384.51169398 -0.80078125 392.69140625 C-5.06737974 394.43659611 -9.399322 395.78713004 -13.83203125 397.04296875 C-16.25111766 397.77376551 -18.53777998 398.5747096 -20.88671875 399.48828125 C-24.86406411 401.00384324 -28.85239085 402.06364879 -33 403 C-33.72767578 403.16733643 -34.45535156 403.33467285 -35.20507812 403.50708008 C-48.72936025 406.56871383 -62.16018415 409.14808562 -76.06640625 409.16796875 C-76.90356674 409.17129715 -77.74072723 409.17462555 -78.60325623 409.17805481 C-80.36546282 409.18308386 -82.12767881 409.18546439 -83.88989258 409.18530273 C-86.5315804 409.18747458 -89.17283968 409.20563333 -91.81445312 409.22460938 C-102.38586717 409.25992073 -112.54828648 408.62974099 -123 407 C-123.89807373 406.86360107 -124.79614746 406.72720215 -125.72143555 406.58666992 C-127.84063835 406.24968157 -129.95135605 405.88384435 -132.0625 405.5 C-133.0824707 405.32404297 -133.0824707 405.32404297 -134.12304688 405.14453125 C-138.51388288 404.36150585 -142.72860371 403.2744166 -147 402 C-148.43972008 401.60147441 -149.87985168 401.20443358 -151.3203125 400.80859375 C-185.52011634 391.16835662 -216.42738041 374.10494969 -242.6328125 350.14453125 C-244.71894486 348.25461926 -246.84649761 346.43688253 -249 344.625 C-284.90138628 313.19326422 -306.76646506 262.17893897 -310.7890625 215.23339844 C-314.56816899 157.30459476 -298.31519403 101.098163 -260 57 C-259.5270752 56.45263184 -259.05415039 55.90526367 -258.56689453 55.34130859 C-196.82645463 -15.56047453 -88.11273431 -39.37307769 0 0 Z " fill="#16520C" transform="translate(2929,3360)"/>
<path d="M0 0 C98.34 0 196.68 0 298 0 C298 16.5 298 33 298 50 C264.34 50 230.68 50 196 50 C199.3 54.62 202.6 59.24 206 64 C213.96382237 77.11688391 223 92.19817019 223 108 C247.75 108 272.5 108 298 108 C298 124.17 298 140.34 298 157 C273.58 157 249.16 157 224 157 C224 159.64 224 162.28 224 165 C223.49671212 167.66903202 222.95158456 170.20151121 222.25 172.8125 C222.06663086 173.51189697 221.88326172 174.21129395 221.69433594 174.93188477 C213.46144985 205.62868775 196.64847655 229.63176679 170 247 C169.15050781 247.56074219 168.30101563 248.12148437 167.42578125 248.69921875 C149.85384989 259.76517883 130.00974578 266.08456245 110 271 C110 274.56709344 110.82870895 275.65387122 112.74609375 278.61328125 C113.33156982 279.52440674 113.9170459 280.43553223 114.52026367 281.37426758 C115.46929565 282.82869263 115.46929565 282.82869263 116.4375 284.3125 C117.07985596 285.30854248 117.72221191 286.30458496 118.3840332 287.33081055 C119.66923729 289.32261057 120.95719674 291.31263568 122.24804688 293.30078125 C123.68789746 295.51914637 125.12105906 297.74135594 126.546875 299.96875 C131.02062258 306.95693966 135.53610499 313.91809334 140.04663086 320.88256836 C143.72738874 326.56971289 147.37328344 332.27823843 151 338 C152.1663267 339.83354963 153.33299923 341.66687932 154.5 343.5 C156.2275709 346.21420583 157.95470176 348.92868161 159.6796875 351.64453125 C165.91886287 361.46332567 172.20517819 371.25059066 178.55664062 380.99707031 C184.39727868 389.9608759 190.17520575 398.96189254 195.90673828 407.99584961 C199.42622167 413.5396975 202.97839744 419.0602656 206.5625 424.5625 C211.20137599 431.69180094 215.67972547 438.91473873 220.13574219 446.15942383 C224.24063416 452.81785445 228.45163807 459.4004015 232.75 465.93554688 C236 470.89838471 236 470.89838471 236 472 C197.06 472 158.12 472 118 472 C113.38 463.75 108.76 455.5 104 447 C98.82283797 438.10122863 98.82283797 438.10122863 93.625 429.21484375 C89.74764201 422.58502721 85.93092156 415.92097189 82.125 409.25 C81.79230103 408.66701141 81.45960205 408.08402283 81.11682129 407.48336792 C78.4023631 402.72617909 75.69073475 397.96737899 72.97924805 393.20849609 C70.61248565 389.05491021 68.24447792 384.90203739 65.875 380.75 C65.54262329 380.16741425 65.21024658 379.58482849 64.86779785 378.98458862 C60.2524956 370.89826582 55.58398933 362.84462613 50.875 354.8125 C45.54637186 345.72204419 40.3708684 336.55424471 35.24511719 327.34814453 C31.83817066 321.24316208 28.38629425 315.16916241 24.84814453 309.13916016 C23.69193692 307.1586345 22.54980814 305.16982751 21.42138672 303.17333984 C18.40060459 297.8693194 15.24009359 292.90253301 11.5625 288.02734375 C-4.21844932 265.9158046 -1.64698143 242.15469995 0 216 C1.2281543 215.98018066 2.45630859 215.96036133 3.72167969 215.93994141 C8.38135608 215.86251198 13.0407742 215.77403716 17.70019531 215.68261719 C19.69753841 215.6448832 21.69493677 215.60994624 23.69238281 215.578125 C55.57733027 215.06436955 84.40633278 213.12137172 108.75 190.4375 C109.4925 189.633125 110.235 188.82875 111 188 C111.45632813 187.525625 111.91265625 187.05125 112.3828125 186.5625 C120.2000186 178.04952163 124.85319173 168.02360165 128 157 C126.92556625 157.24495413 126.92556625 157.24495413 125.82942677 157.49485683 C123.04695687 157.9916167 120.5515501 158.10823693 117.72917175 158.08229065 C116.68735748 158.07525116 115.64554321 158.06821167 114.57215881 158.06095886 C113.43999435 158.04801285 112.3078299 158.03506683 111.14135742 158.02172852 C109.94093811 158.01212097 108.7405188 158.00251343 107.50372314 157.99261475 C104.22101694 157.96532622 100.93839466 157.93342653 97.65575194 157.89946485 C94.22181237 157.86503205 90.78782378 157.83651057 87.35383606 157.80735779 C80.85512988 157.75129106 74.35648508 157.68992027 67.8578456 157.62663645 C60.4576646 157.55483222 53.05743455 157.48895223 45.6571945 157.42356598 C30.43806376 157.28896189 15.21902491 157.14614877 0 157 C0 140.83 0 124.66 0 108 C41.91 108 83.82 108 127 108 C120.59664297 88.78992892 112.6307243 70.84897537 94 61 C93.03707031 60.49082031 92.07414062 59.98164063 91.08203125 59.45703125 C77.64384335 52.8279617 64.9404972 50.39955036 50.09765625 50.390625 C48.63934035 50.37559205 47.18104113 50.35885451 45.72276306 50.34051514 C41.94014574 50.29740145 38.15775765 50.2769694 34.37493896 50.26177979 C29.80648508 50.23850764 25.23827714 50.18614583 20.67002106 50.13883972 C13.77995114 50.07065726 6.89058174 50.03870026 0 50 C0 33.5 0 17 0 0 Z " fill="#00540B" transform="translate(4763,3332)"/>
<path d="M0 0 C100.98 0 201.96 0 306 0 C306 33.33 306 66.66 306 101 C273.66 101 241.32 101 208 101 C208 202.64 208 304.28 208 409 C172.03 409 136.06 409 99 409 C99 307.36 99 205.72 99 101 C66.33 101 33.66 101 0 101 C0 67.67 0 34.34 0 0 Z " fill="#1A540B" transform="translate(5112,3351)"/>
<path d="M0 0 C10.51875 -0.04125 21.0375 -0.0825 31.875 -0.125 C35.17741699 -0.14320801 38.47983398 -0.16141602 41.88232422 -0.18017578 C44.52311033 -0.18602137 47.16389825 -0.19111678 49.8046875 -0.1953125 C50.81415939 -0.20315262 50.81415939 -0.20315262 51.84402466 -0.21115112 C66.8240014 -0.32152172 81.96112514 1.2498546 93.31640625 12.109375 C102.04897628 21.91578775 102.79905983 32.19274703 102.1953125 44.79345703 C101.7874943 49.40078319 100.37195067 53.07401269 98 57 C97.59910156 57.70125 97.19820312 58.4025 96.78515625 59.125 C90.03094373 69.46188178 77.64930254 74.37689534 66 77 C60.67795374 77.59542305 55.43894894 77.59234725 50.09765625 77.48828125 C48.81532104 77.48324585 47.53298584 77.47821045 46.21179199 77.47302246 C41.49512862 77.44717964 36.77878797 77.37737724 32.0625 77.3125 C21.481875 77.209375 10.90125 77.10625 0 77 C0 51.59 0 26.18 0 0 Z " fill="#000000" transform="translate(1948,3584)"/>
<path d="M0 0 C3.2555612 1.6277806 3.85156955 5.13191109 5.125 8.375 C5.75188426 9.9325816 6.37951626 11.48986242 7.0078125 13.046875 C7.33426758 13.86091797 7.66072266 14.67496094 7.99707031 15.51367188 C9.63122054 19.5648369 11.30965225 23.597007 13 27.625 C13.3388623 28.43259766 13.67772461 29.24019531 14.02685547 30.07226562 C15.99580949 34.72838476 18.06538406 39.31487934 20.25 43.875 C24.36462755 52.53936513 27.94681861 61.42676393 31.56152344 70.30810547 C34.47637035 77.44069144 37.54546826 84.43110076 40.89624023 91.36865234 C42 94 42 94 42 97 C14.61 97 -12.78 97 -41 97 C-39.12706958 91.38120873 -37.27603698 86.02962094 -34.91015625 80.64453125 C-34.61331436 79.96033615 -34.31647247 79.27614105 -34.01063538 78.57121277 C-33.03149009 76.31673835 -32.0469972 74.0646418 -31.0625 71.8125 C-30.36731663 70.21434889 -29.67250134 68.61603762 -28.97802734 67.01757812 C-27.47433785 63.55845835 -25.96830293 60.10037298 -24.46044922 56.64306641 C-20.90961865 48.5012231 -17.36809309 40.3553327 -13.82592773 32.2097168 C-12.04438848 28.11287002 -10.26123769 24.01673057 -8.47680664 19.92114258 C-7.6538025 18.03076437 -6.83080417 16.14038364 -6.0078125 14.25 C-5.44321068 12.95548164 -5.44321068 12.95548164 -4.86720276 11.6348114 C-3.18858334 7.77714572 -1.52886686 3.9202736 0 0 Z " fill="#000000" transform="translate(4515,3536)"/>
<path d="M0 0 C5.15625 -0.061875 10.3125 -0.12375 15.625 -0.1875 C18.01806396 -0.22846802 18.01806396 -0.22846802 20.45947266 -0.27026367 C34.605859 -0.35148444 48.14845096 0.90284434 59.0625 10.88671875 C66.37861032 18.64484407 67.65188649 25.73161713 67.41015625 36.3046875 C66.55803719 43.98187448 62.85130389 50.17015365 57.2265625 55.3984375 C48.28278274 61.83168259 39.22376335 64.16914325 28.41796875 64.09765625 C27.69565063 64.09664917 26.97333252 64.09564209 26.22912598 64.09460449 C23.54856768 64.08939952 20.86803213 64.07543837 18.1875 64.0625 C12.185625 64.041875 6.18375 64.02125 0 64 C0 42.88 0 21.76 0 0 Z " fill="#000000" transform="translate(1948,3445)"/>
</svg>
